<svg xmlns="http://www.w3.org/2000/svg">
    <!-- header-top -->
    <symbol viewBox="0 0 48 51" id="logo">
        <path d="M46.06 46.941c.133.927-.242 1.87-.977 2.46a2.737 2.737 0 0 1-2.638.437l-10.435-3.75a23.933 23.933 0 0 1-7.924 1.338c-7.316 0-14.372-3.344-18.875-8.946C1.223 33.52-.573 27.32.154 21.024c.728-6.297 3.892-11.937 8.91-15.88A24.227 24.227 0 0 1 23.974 0c7.379 0 14.235 3.264 18.81 8.954 6.28 7.81 6.943 18.644 1.71 27.116zm-6.687-12.91c4.584-6.68 4.248-15.417-.836-21.74-3.54-4.403-8.846-6.929-14.56-6.929-4.234 0-8.224 1.376-11.537 3.98-3.884 3.052-6.333 7.417-6.897 12.29-.563 4.874.827 9.672 3.914 13.512 3.486 4.334 8.95 6.922 14.62 6.923a18.45 18.45 0 0 0 6.816-1.293 2.75 2.75 0 0 1 1.653-.115c.218.022.433.071.642.145l6.864 2.468-.98-6.813a2.67 2.67 0 0 1 .301-2.429zM23.145 10.738a2.672 2.672 0 0 1-1.384 3.535c-3.403 1.488-6.014 4.344-7.164 7.835a2.704 2.704 0 0 1-2.578 1.851c-.287 0-.57-.045-.844-.133a2.683 2.683 0 0 1-1.574-1.333 2.636 2.636 0 0 1-.162-2.046c1.627-4.937 5.318-8.975 10.127-11.078.347-.153.717-.23 1.098-.23 1.073 0 2.047.627 2.48 1.599z"/>
        <g>
            <g>
                <g filter="url(#qgnxa)">
                    <path d="M46.06 46.941c.133.927-.242 1.87-.977 2.46a2.737 2.737 0 0 1-2.638.437l-10.435-3.75a23.933 23.933 0 0 1-7.924 1.338c-7.316 0-14.372-3.344-18.875-8.946C1.223 33.52-.573 27.32.154 21.024c.728-6.297 3.892-11.937 8.91-15.88A24.227 24.227 0 0 1 23.974 0c7.379 0 14.235 3.264 18.81 8.954 6.28 7.81 6.943 18.644 1.71 27.116zm-6.687-12.91c4.584-6.68 4.248-15.417-.836-21.74-3.54-4.403-8.846-6.929-14.56-6.929-4.234 0-8.224 1.376-11.537 3.98-3.884 3.052-6.333 7.417-6.897 12.29-.563 4.874.827 9.672 3.914 13.512 3.486 4.334 8.95 6.922 14.62 6.923a18.45 18.45 0 0 0 6.816-1.293 2.75 2.75 0 0 1 1.653-.115c.218.022.433.071.642.145l6.864 2.468-.98-6.813a2.67 2.67 0 0 1 .301-2.429zM23.145 10.738a2.672 2.672 0 0 1-1.384 3.535c-3.403 1.488-6.014 4.344-7.164 7.835a2.704 2.704 0 0 1-2.578 1.851c-.287 0-.57-.045-.844-.133a2.683 2.683 0 0 1-1.574-1.333 2.636 2.636 0 0 1-.162-2.046c1.627-4.937 5.318-8.975 10.127-11.078.347-.153.717-.23 1.098-.23 1.073 0 2.047.627 2.48 1.599z" mask="url(&quot;#qgnxb&quot;)"/>
                    <path d="M46.06 46.941c.133.927-.242 1.87-.977 2.46a2.737 2.737 0 0 1-2.638.437l-10.435-3.75a23.933 23.933 0 0 1-7.924 1.338c-7.316 0-14.372-3.344-18.875-8.946C1.223 33.52-.573 27.32.154 21.024c.728-6.297 3.892-11.937 8.91-15.88A24.227 24.227 0 0 1 23.974 0c7.379 0 14.235 3.264 18.81 8.954 6.28 7.81 6.943 18.644 1.71 27.116zm-6.687-12.91c4.584-6.68 4.248-15.417-.836-21.74-3.54-4.403-8.846-6.929-14.56-6.929-4.234 0-8.224 1.376-11.537 3.98-3.884 3.052-6.333 7.417-6.897 12.29-.563 4.874.827 9.672 3.914 13.512 3.486 4.334 8.95 6.922 14.62 6.923a18.45 18.45 0 0 0 6.816-1.293 2.75 2.75 0 0 1 1.653-.115c.218.022.433.071.642.145l6.864 2.468-.98-6.813a2.67 2.67 0 0 1 .301-2.429zM23.145 10.738a2.672 2.672 0 0 1-1.384 3.535c-3.403 1.488-6.014 4.344-7.164 7.835a2.704 2.704 0 0 1-2.578 1.851c-.287 0-.57-.045-.844-.133a2.683 2.683 0 0 1-1.574-1.333 2.636 2.636 0 0 1-.162-2.046c1.627-4.937 5.318-8.975 10.127-11.078.347-.153.717-.23 1.098-.23 1.073 0 2.047.627 2.48 1.599z"/>
                </g>
                <path d="M46.06 46.941c.133.927-.242 1.87-.977 2.46a2.737 2.737 0 0 1-2.638.437l-10.435-3.75a23.933 23.933 0 0 1-7.924 1.338c-7.316 0-14.372-3.344-18.875-8.946C1.223 33.52-.573 27.32.154 21.024c.728-6.297 3.892-11.937 8.91-15.88A24.227 24.227 0 0 1 23.974 0c7.379 0 14.235 3.264 18.81 8.954 6.28 7.81 6.943 18.644 1.71 27.116zm-6.687-12.91c4.584-6.68 4.248-15.417-.836-21.74-3.54-4.403-8.846-6.929-14.56-6.929-4.234 0-8.224 1.376-11.537 3.98-3.884 3.052-6.333 7.417-6.897 12.29-.563 4.874.827 9.672 3.914 13.512 3.486 4.334 8.95 6.922 14.62 6.923a18.45 18.45 0 0 0 6.816-1.293 2.75 2.75 0 0 1 1.653-.115c.218.022.433.071.642.145l6.864 2.468-.98-6.813a2.67 2.67 0 0 1 .301-2.429zM23.145 10.738a2.672 2.672 0 0 1-1.384 3.535c-3.403 1.488-6.014 4.344-7.164 7.835a2.704 2.704 0 0 1-2.578 1.851c-.287 0-.57-.045-.844-.133a2.683 2.683 0 0 1-1.574-1.333 2.636 2.636 0 0 1-.162-2.046c1.627-4.937 5.318-8.975 10.127-11.078.347-.153.717-.23 1.098-.23 1.073 0 2.047.627 2.48 1.599z"/>
                <path d="M46.06 46.941c.133.927-.242 1.87-.977 2.46a2.737 2.737 0 0 1-2.638.437l-10.435-3.75a23.933 23.933 0 0 1-7.924 1.338c-7.316 0-14.372-3.344-18.875-8.946C1.223 33.52-.573 27.32.154 21.024c.728-6.297 3.892-11.937 8.91-15.88A24.227 24.227 0 0 1 23.974 0c7.379 0 14.235 3.264 18.81 8.954 6.28 7.81 6.943 18.644 1.71 27.116zm-6.687-12.91c4.584-6.68 4.248-15.417-.836-21.74-3.54-4.403-8.846-6.929-14.56-6.929-4.234 0-8.224 1.376-11.537 3.98-3.884 3.052-6.333 7.417-6.897 12.29-.563 4.874.827 9.672 3.914 13.512 3.486 4.334 8.95 6.922 14.62 6.923a18.45 18.45 0 0 0 6.816-1.293 2.75 2.75 0 0 1 1.653-.115c.218.022.433.071.642.145l6.864 2.468-.98-6.813a2.67 2.67 0 0 1 .301-2.429zM23.145 10.738a2.672 2.672 0 0 1-1.384 3.535c-3.403 1.488-6.014 4.344-7.164 7.835a2.704 2.704 0 0 1-2.578 1.851c-.287 0-.57-.045-.844-.133a2.683 2.683 0 0 1-1.574-1.333 2.636 2.636 0 0 1-.162-2.046c1.627-4.937 5.318-8.975 10.127-11.078.347-.153.717-.23 1.098-.23 1.073 0 2.047.627 2.48 1.599z"/>
            </g>
        </g>
    </symbol>
    <symbol viewBox="0 0 11 18" id="map_pin">
        <path d="M2.265 5.354c0-1.878 1.45-3.4 3.237-3.4 1.788 0 3.237 1.522 3.237 3.4 0 1.877-1.45 3.4-3.237 3.4-1.787 0-3.237-1.522-3.237-3.4zM0 5.779c0 1.422 1.641 4.42 1.641 4.42L5.502 17l3.639-6.8s1.863-3.02 1.863-4.42c0-3.193-2.463-5.781-5.502-5.781C2.463-.002 0 2.586 0 5.778z"/>
        <g>
            <g>
                <g filter="url(#6yana)">
                    <path d="M2.265 5.354c0-1.878 1.45-3.4 3.237-3.4 1.788 0 3.237 1.522 3.237 3.4 0 1.877-1.45 3.4-3.237 3.4-1.787 0-3.237-1.522-3.237-3.4zM0 5.779c0 1.422 1.641 4.42 1.641 4.42L5.502 17l3.639-6.8s1.863-3.02 1.863-4.42c0-3.193-2.463-5.781-5.502-5.781C2.463-.002 0 2.586 0 5.778z" mask="url(&quot;#6yanb&quot;)"/>
                    <path d="M2.265 5.354c0-1.878 1.45-3.4 3.237-3.4 1.788 0 3.237 1.522 3.237 3.4 0 1.877-1.45 3.4-3.237 3.4-1.787 0-3.237-1.522-3.237-3.4zM0 5.779c0 1.422 1.641 4.42 1.641 4.42L5.502 17l3.639-6.8s1.863-3.02 1.863-4.42c0-3.193-2.463-5.781-5.502-5.781C2.463-.002 0 2.586 0 5.778z"/>
                </g>
                <path d="M2.265 5.354c0-1.878 1.45-3.4 3.237-3.4 1.788 0 3.237 1.522 3.237 3.4 0 1.877-1.45 3.4-3.237 3.4-1.787 0-3.237-1.522-3.237-3.4zM0 5.779c0 1.422 1.641 4.42 1.641 4.42L5.502 17l3.639-6.8s1.863-3.02 1.863-4.42c0-3.193-2.463-5.781-5.502-5.781C2.463-.002 0 2.586 0 5.778z"/>
                <path d="M2.265 5.354c0-1.878 1.45-3.4 3.237-3.4 1.788 0 3.237 1.522 3.237 3.4 0 1.877-1.45 3.4-3.237 3.4-1.787 0-3.237-1.522-3.237-3.4zM0 5.779c0 1.422 1.641 4.42 1.641 4.42L5.502 17l3.639-6.8s1.863-3.02 1.863-4.42c0-3.193-2.463-5.781-5.502-5.781C2.463-.002 0 2.586 0 5.778z"/>
            </g>
        </g>
    </symbol>
    <symbol viewBox="0 0 23 23" id="clock">
        <g>
            <g>
                <path d="M11.5-.012c6.35 0 11.5 5.149 11.5 11.5s-5.15 11.5-11.5 11.5c-6.352 0-11.5-5.149-11.5-11.5s5.148-11.5 11.5-11.5zM2.118 11.512a9.288 9.288 0 0 0 9.289 9.288 9.288 9.288 0 1 0 0-18.576 9.288 9.288 0 0 0-9.289 9.288zm11.973 2.285H10.58a.875.875 0 0 1-.876-.876V7.595a.876.876 0 1 1 1.751 0v4.45h2.636a.876.876 0 0 1 0 1.752z"/>
            </g>
        </g>
    </symbol>
    <!-- header-bottom -->
    <symbol viewBox="0 0 26 27" id="world">
        <path d="M12.785 26C5.74 26 .006 20.168.006 13S5.74 0 12.786 0c7.046 0 12.778 5.832 12.778 13s-5.732 13-12.779 13zm5.372-5.985c-.873 2.009-2.025 3.425-3.011 4.367a11.346 11.346 0 0 0 5.348-2.799 15.828 15.828 0 0 0-2.337-1.568zm-13.11 1.54a11.349 11.349 0 0 0 5.378 2.827c-1.009-.963-2.19-2.423-3.07-4.504-.763.437-1.534.99-2.309 1.677zm8.41-3.048v5.546c.967-.754 2.443-2.21 3.485-4.63a11.694 11.694 0 0 0-3.484-.916zm-4.892.767c1.044 2.51 2.562 4.01 3.548 4.78v-5.586a9.968 9.968 0 0 0-3.548.806zm10.066-.499c1.194.63 2.151 1.32 2.794 1.835a11.691 11.691 0 0 0 2.775-6.926h-4.7c-.062 1.969-.39 3.656-.869 5.091zm-17.26-5.09a11.69 11.69 0 0 0 2.74 6.885 15.108 15.108 0 0 1 2.765-1.987c-.444-1.393-.747-3.017-.806-4.899zm12.087 3.482c1.441.134 2.774.527 3.945 1.024.41-1.275.692-2.768.751-4.507h-4.696zm-6.042-3.483c.056 1.647.312 3.075.688 4.305a11.096 11.096 0 0 1 4.009-.867v-3.438zM19.5 12.316h4.7a11.69 11.69 0 0 0-2.74-6.885 15.094 15.094 0 0 1-2.766 1.986c.444 1.393.747 3.017.806 4.899zm-6.042 0h4.696c-.056-1.647-.312-3.075-.687-4.304a11.096 11.096 0 0 1-4.01.866zm-6.042 0h4.697V8.833c-1.442-.134-2.775-.527-3.946-1.024-.41 1.275-.692 2.768-.751 4.507zm-6.045 0H6.07c.062-1.969.39-3.656.869-5.091a17.799 17.799 0 0 1-2.794-1.836 11.691 11.691 0 0 0-2.774 6.927zM13.458 1.947v5.585a9.968 9.968 0 0 0 3.547-.806c-1.044-2.51-2.562-4.01-3.547-4.779zm-4.83 4.63a11.7 11.7 0 0 0 3.485.916V1.947c-.966.754-2.443 2.21-3.485 4.63zm6.518-4.96c1.008.964 2.19 2.424 3.07 4.505.762-.437 1.533-.99 2.308-1.677a11.352 11.352 0 0 0-5.379-2.827zm-10.07 2.8a15.79 15.79 0 0 0 2.337 1.568c.873-2.009 2.026-3.425 3.012-4.367a11.35 11.35 0 0 0-5.348 2.799z"/>
        <g>
            <g>
                <g filter="url(#j10ka)">
                    <path d="M12.785 26C5.74 26 .006 20.168.006 13S5.74 0 12.786 0c7.046 0 12.778 5.832 12.778 13s-5.732 13-12.779 13zm5.372-5.985c-.873 2.009-2.025 3.425-3.011 4.367a11.346 11.346 0 0 0 5.348-2.799 15.828 15.828 0 0 0-2.337-1.568zm-13.11 1.54a11.349 11.349 0 0 0 5.378 2.827c-1.009-.963-2.19-2.423-3.07-4.504-.763.437-1.534.99-2.309 1.677zm8.41-3.048v5.546c.967-.754 2.443-2.21 3.485-4.63a11.694 11.694 0 0 0-3.484-.916zm-4.892.767c1.044 2.51 2.562 4.01 3.548 4.78v-5.586a9.968 9.968 0 0 0-3.548.806zm10.066-.499c1.194.63 2.151 1.32 2.794 1.835a11.691 11.691 0 0 0 2.775-6.926h-4.7c-.062 1.969-.39 3.656-.869 5.091zm-17.26-5.09a11.69 11.69 0 0 0 2.74 6.885 15.108 15.108 0 0 1 2.765-1.987c-.444-1.393-.747-3.017-.806-4.899zm12.087 3.482c1.441.134 2.774.527 3.945 1.024.41-1.275.692-2.768.751-4.507h-4.696zm-6.042-3.483c.056 1.647.312 3.075.688 4.305a11.096 11.096 0 0 1 4.009-.867v-3.438zM19.5 12.316h4.7a11.69 11.69 0 0 0-2.74-6.885 15.094 15.094 0 0 1-2.766 1.986c.444 1.393.747 3.017.806 4.899zm-6.042 0h4.696c-.056-1.647-.312-3.075-.687-4.304a11.096 11.096 0 0 1-4.01.866zm-6.042 0h4.697V8.833c-1.442-.134-2.775-.527-3.946-1.024-.41 1.275-.692 2.768-.751 4.507zm-6.045 0H6.07c.062-1.969.39-3.656.869-5.091a17.799 17.799 0 0 1-2.794-1.836 11.691 11.691 0 0 0-2.774 6.927zM13.458 1.947v5.585a9.968 9.968 0 0 0 3.547-.806c-1.044-2.51-2.562-4.01-3.547-4.779zm-4.83 4.63a11.7 11.7 0 0 0 3.485.916V1.947c-.966.754-2.443 2.21-3.485 4.63zm6.518-4.96c1.008.964 2.19 2.424 3.07 4.505.762-.437 1.533-.99 2.308-1.677a11.352 11.352 0 0 0-5.379-2.827zm-10.07 2.8a15.79 15.79 0 0 0 2.337 1.568c.873-2.009 2.026-3.425 3.012-4.367a11.35 11.35 0 0 0-5.348 2.799z" mask="url(&quot;#j10kb&quot;)"/>
                    <path d="M12.785 26C5.74 26 .006 20.168.006 13S5.74 0 12.786 0c7.046 0 12.778 5.832 12.778 13s-5.732 13-12.779 13zm5.372-5.985c-.873 2.009-2.025 3.425-3.011 4.367a11.346 11.346 0 0 0 5.348-2.799 15.828 15.828 0 0 0-2.337-1.568zm-13.11 1.54a11.349 11.349 0 0 0 5.378 2.827c-1.009-.963-2.19-2.423-3.07-4.504-.763.437-1.534.99-2.309 1.677zm8.41-3.048v5.546c.967-.754 2.443-2.21 3.485-4.63a11.694 11.694 0 0 0-3.484-.916zm-4.892.767c1.044 2.51 2.562 4.01 3.548 4.78v-5.586a9.968 9.968 0 0 0-3.548.806zm10.066-.499c1.194.63 2.151 1.32 2.794 1.835a11.691 11.691 0 0 0 2.775-6.926h-4.7c-.062 1.969-.39 3.656-.869 5.091zm-17.26-5.09a11.69 11.69 0 0 0 2.74 6.885 15.108 15.108 0 0 1 2.765-1.987c-.444-1.393-.747-3.017-.806-4.899zm12.087 3.482c1.441.134 2.774.527 3.945 1.024.41-1.275.692-2.768.751-4.507h-4.696zm-6.042-3.483c.056 1.647.312 3.075.688 4.305a11.096 11.096 0 0 1 4.009-.867v-3.438zM19.5 12.316h4.7a11.69 11.69 0 0 0-2.74-6.885 15.094 15.094 0 0 1-2.766 1.986c.444 1.393.747 3.017.806 4.899zm-6.042 0h4.696c-.056-1.647-.312-3.075-.687-4.304a11.096 11.096 0 0 1-4.01.866zm-6.042 0h4.697V8.833c-1.442-.134-2.775-.527-3.946-1.024-.41 1.275-.692 2.768-.751 4.507zm-6.045 0H6.07c.062-1.969.39-3.656.869-5.091a17.799 17.799 0 0 1-2.794-1.836 11.691 11.691 0 0 0-2.774 6.927zM13.458 1.947v5.585a9.968 9.968 0 0 0 3.547-.806c-1.044-2.51-2.562-4.01-3.547-4.779zm-4.83 4.63a11.7 11.7 0 0 0 3.485.916V1.947c-.966.754-2.443 2.21-3.485 4.63zm6.518-4.96c1.008.964 2.19 2.424 3.07 4.505.762-.437 1.533-.99 2.308-1.677a11.352 11.352 0 0 0-5.379-2.827zm-10.07 2.8a15.79 15.79 0 0 0 2.337 1.568c.873-2.009 2.026-3.425 3.012-4.367a11.35 11.35 0 0 0-5.348 2.799z"/>
                </g>
                <path d="M12.785 26C5.74 26 .006 20.168.006 13S5.74 0 12.786 0c7.046 0 12.778 5.832 12.778 13s-5.732 13-12.779 13zm5.372-5.985c-.873 2.009-2.025 3.425-3.011 4.367a11.346 11.346 0 0 0 5.348-2.799 15.828 15.828 0 0 0-2.337-1.568zm-13.11 1.54a11.349 11.349 0 0 0 5.378 2.827c-1.009-.963-2.19-2.423-3.07-4.504-.763.437-1.534.99-2.309 1.677zm8.41-3.048v5.546c.967-.754 2.443-2.21 3.485-4.63a11.694 11.694 0 0 0-3.484-.916zm-4.892.767c1.044 2.51 2.562 4.01 3.548 4.78v-5.586a9.968 9.968 0 0 0-3.548.806zm10.066-.499c1.194.63 2.151 1.32 2.794 1.835a11.691 11.691 0 0 0 2.775-6.926h-4.7c-.062 1.969-.39 3.656-.869 5.091zm-17.26-5.09a11.69 11.69 0 0 0 2.74 6.885 15.108 15.108 0 0 1 2.765-1.987c-.444-1.393-.747-3.017-.806-4.899zm12.087 3.482c1.441.134 2.774.527 3.945 1.024.41-1.275.692-2.768.751-4.507h-4.696zm-6.042-3.483c.056 1.647.312 3.075.688 4.305a11.096 11.096 0 0 1 4.009-.867v-3.438zM19.5 12.316h4.7a11.69 11.69 0 0 0-2.74-6.885 15.094 15.094 0 0 1-2.766 1.986c.444 1.393.747 3.017.806 4.899zm-6.042 0h4.696c-.056-1.647-.312-3.075-.687-4.304a11.096 11.096 0 0 1-4.01.866zm-6.042 0h4.697V8.833c-1.442-.134-2.775-.527-3.946-1.024-.41 1.275-.692 2.768-.751 4.507zm-6.045 0H6.07c.062-1.969.39-3.656.869-5.091a17.799 17.799 0 0 1-2.794-1.836 11.691 11.691 0 0 0-2.774 6.927zM13.458 1.947v5.585a9.968 9.968 0 0 0 3.547-.806c-1.044-2.51-2.562-4.01-3.547-4.779zm-4.83 4.63a11.7 11.7 0 0 0 3.485.916V1.947c-.966.754-2.443 2.21-3.485 4.63zm6.518-4.96c1.008.964 2.19 2.424 3.07 4.505.762-.437 1.533-.99 2.308-1.677a11.352 11.352 0 0 0-5.379-2.827zm-10.07 2.8a15.79 15.79 0 0 0 2.337 1.568c.873-2.009 2.026-3.425 3.012-4.367a11.35 11.35 0 0 0-5.348 2.799z"/>
                <path d="M12.785 26C5.74 26 .006 20.168.006 13S5.74 0 12.786 0c7.046 0 12.778 5.832 12.778 13s-5.732 13-12.779 13zm5.372-5.985c-.873 2.009-2.025 3.425-3.011 4.367a11.346 11.346 0 0 0 5.348-2.799 15.828 15.828 0 0 0-2.337-1.568zm-13.11 1.54a11.349 11.349 0 0 0 5.378 2.827c-1.009-.963-2.19-2.423-3.07-4.504-.763.437-1.534.99-2.309 1.677zm8.41-3.048v5.546c.967-.754 2.443-2.21 3.485-4.63a11.694 11.694 0 0 0-3.484-.916zm-4.892.767c1.044 2.51 2.562 4.01 3.548 4.78v-5.586a9.968 9.968 0 0 0-3.548.806zm10.066-.499c1.194.63 2.151 1.32 2.794 1.835a11.691 11.691 0 0 0 2.775-6.926h-4.7c-.062 1.969-.39 3.656-.869 5.091zm-17.26-5.09a11.69 11.69 0 0 0 2.74 6.885 15.108 15.108 0 0 1 2.765-1.987c-.444-1.393-.747-3.017-.806-4.899zm12.087 3.482c1.441.134 2.774.527 3.945 1.024.41-1.275.692-2.768.751-4.507h-4.696zm-6.042-3.483c.056 1.647.312 3.075.688 4.305a11.096 11.096 0 0 1 4.009-.867v-3.438zM19.5 12.316h4.7a11.69 11.69 0 0 0-2.74-6.885 15.094 15.094 0 0 1-2.766 1.986c.444 1.393.747 3.017.806 4.899zm-6.042 0h4.696c-.056-1.647-.312-3.075-.687-4.304a11.096 11.096 0 0 1-4.01.866zm-6.042 0h4.697V8.833c-1.442-.134-2.775-.527-3.946-1.024-.41 1.275-.692 2.768-.751 4.507zm-6.045 0H6.07c.062-1.969.39-3.656.869-5.091a17.799 17.799 0 0 1-2.794-1.836 11.691 11.691 0 0 0-2.774 6.927zM13.458 1.947v5.585a9.968 9.968 0 0 0 3.547-.806c-1.044-2.51-2.562-4.01-3.547-4.779zm-4.83 4.63a11.7 11.7 0 0 0 3.485.916V1.947c-.966.754-2.443 2.21-3.485 4.63zm6.518-4.96c1.008.964 2.19 2.424 3.07 4.505.762-.437 1.533-.99 2.308-1.677a11.352 11.352 0 0 0-5.379-2.827zm-10.07 2.8a15.79 15.79 0 0 0 2.337 1.568c.873-2.009 2.026-3.425 3.012-4.367a11.35 11.35 0 0 0-5.348 2.799z"/>
            </g>
        </g>
    </symbol>
    <symbol viewBox="0 0 26 25" id="plane">
        <path d="M6.966 23.285a.68.68 0 0 1-.672-.666l-.12-5.856-5.68-2.872a.679.679 0 0 1-.27-.98l.001-.002a.477.477 0 0 1 .018-.025.67.67 0 0 1 .258-.219L24.667.443a.668.668 0 0 1 .95.376.688.688 0 0 1-.024.507l-9.06 21.384a.69.69 0 0 1-.12.198h-.001a.547.547 0 0 1-.025.027s-.001.001 0 0a.667.667 0 0 1-.45.2l-.02.001h-.008a.661.661 0 0 1-.387-.124l-5.12-3.57-2.916 3.595a.67.67 0 0 1-.52.248zm4.302-4.89l3.937 2.745-.177-7.216zm-3.752-1.743l.084 4.1 2.153-2.655.006-.007a.147.147 0 0 1 .004-.005L19.39 6.643l-5.422 4.57a.636.636 0 0 1-.03.026zm8.819-4.28l.17 6.953 6.109-14.417zM2.84 13.557l3.903 1.974 4.314-3.636zM20.103 4.27L5.577 11.618l7.645-1.547z"/>
        <g>
            <g>
                <g filter="url(#fic8a)">
                    <path d="M6.966 23.285a.68.68 0 0 1-.672-.666l-.12-5.856-5.68-2.872a.679.679 0 0 1-.27-.98l.001-.002a.477.477 0 0 1 .018-.025.67.67 0 0 1 .258-.219L24.667.443a.668.668 0 0 1 .95.376.688.688 0 0 1-.024.507l-9.06 21.384a.69.69 0 0 1-.12.198h-.001a.547.547 0 0 1-.025.027s-.001.001 0 0a.667.667 0 0 1-.45.2l-.02.001h-.008a.661.661 0 0 1-.387-.124l-5.12-3.57-2.916 3.595a.67.67 0 0 1-.52.248zm4.302-4.89l3.937 2.745-.177-7.216zm-3.752-1.743l.084 4.1 2.153-2.655.006-.007a.147.147 0 0 1 .004-.005L19.39 6.643l-5.422 4.57a.636.636 0 0 1-.03.026zm8.819-4.28l.17 6.953 6.109-14.417zM2.84 13.557l3.903 1.974 4.314-3.636zM20.103 4.27L5.577 11.618l7.645-1.547z" mask="url(&quot;#fic8b&quot;)"/>
                    <path d="M6.966 23.285a.68.68 0 0 1-.672-.666l-.12-5.856-5.68-2.872a.679.679 0 0 1-.27-.98l.001-.002a.477.477 0 0 1 .018-.025.67.67 0 0 1 .258-.219L24.667.443a.668.668 0 0 1 .95.376.688.688 0 0 1-.024.507l-9.06 21.384a.69.69 0 0 1-.12.198h-.001a.547.547 0 0 1-.025.027s-.001.001 0 0a.667.667 0 0 1-.45.2l-.02.001h-.008a.661.661 0 0 1-.387-.124l-5.12-3.57-2.916 3.595a.67.67 0 0 1-.52.248zm4.302-4.89l3.937 2.745-.177-7.216zm-3.752-1.743l.084 4.1 2.153-2.655.006-.007a.147.147 0 0 1 .004-.005L19.39 6.643l-5.422 4.57a.636.636 0 0 1-.03.026zm8.819-4.28l.17 6.953 6.109-14.417zM2.84 13.557l3.903 1.974 4.314-3.636zM20.103 4.27L5.577 11.618l7.645-1.547z"/>
                </g>
                <path d="M6.966 23.285a.68.68 0 0 1-.672-.666l-.12-5.856-5.68-2.872a.679.679 0 0 1-.27-.98l.001-.002a.477.477 0 0 1 .018-.025.67.67 0 0 1 .258-.219L24.667.443a.668.668 0 0 1 .95.376.688.688 0 0 1-.024.507l-9.06 21.384a.69.69 0 0 1-.12.198h-.001a.547.547 0 0 1-.025.027s-.001.001 0 0a.667.667 0 0 1-.45.2l-.02.001h-.008a.661.661 0 0 1-.387-.124l-5.12-3.57-2.916 3.595a.67.67 0 0 1-.52.248zm4.302-4.89l3.937 2.745-.177-7.216zm-3.752-1.743l.084 4.1 2.153-2.655.006-.007a.147.147 0 0 1 .004-.005L19.39 6.643l-5.422 4.57a.636.636 0 0 1-.03.026zm8.819-4.28l.17 6.953 6.109-14.417zM2.84 13.557l3.903 1.974 4.314-3.636zM20.103 4.27L5.577 11.618l7.645-1.547z"/>
                <path d="M6.966 23.285a.68.68 0 0 1-.672-.666l-.12-5.856-5.68-2.872a.679.679 0 0 1-.27-.98l.001-.002a.477.477 0 0 1 .018-.025.67.67 0 0 1 .258-.219L24.667.443a.668.668 0 0 1 .95.376.688.688 0 0 1-.024.507l-9.06 21.384a.69.69 0 0 1-.12.198h-.001a.547.547 0 0 1-.025.027s-.001.001 0 0a.667.667 0 0 1-.45.2l-.02.001h-.008a.661.661 0 0 1-.387-.124l-5.12-3.57-2.916 3.595a.67.67 0 0 1-.52.248zm4.302-4.89l3.937 2.745-.177-7.216zm-3.752-1.743l.084 4.1 2.153-2.655.006-.007a.147.147 0 0 1 .004-.005L19.39 6.643l-5.422 4.57a.636.636 0 0 1-.03.026zm8.819-4.28l.17 6.953 6.109-14.417zM2.84 13.557l3.903 1.974 4.314-3.636zM20.103 4.27L5.577 11.618l7.645-1.547z"/>
            </g>
        </g>
    </symbol>
    <symbol viewBox="0 0 21 27" id="doc">
        <path d="M19.617 26H1.457a.678.678 0 0 1-.672-.684V.684c0-.378.3-.684.672-.684h12.109a.666.666 0 0 1 .47.197l.001.001v.001h.001L14.04.2l6.053 6.158.001.001h.001v.002h.001l.001.001a.688.688 0 0 1 .193.478v18.476a.678.678 0 0 1-.672.684zM2.13 24.632h16.814V7.526h-5.38a.678.678 0 0 1-.673-.684V1.37H2.13zM14.236 6.158h3.757l-3.757-3.822zm2.354 14.71H4.484a.678.678 0 0 1-.673-.684c0-.378.301-.684.673-.684H16.59c.372 0 .673.306.673.684a.678.678 0 0 1-.673.684zm0-3.078H4.484a.679.679 0 0 1-.673-.685c0-.378.301-.684.673-.684H16.59c.372 0 .673.306.673.684a.679.679 0 0 1-.673.685zm-6.053-3.08H4.484a.678.678 0 0 1-.673-.684c0-.377.301-.684.673-.684h6.053c.371 0 .673.307.673.684a.678.678 0 0 1-.673.685zm-.473-7.184h-5.58a.678.678 0 0 1-.673-.684V3.763c0-.378.301-.684.673-.684h5.58c.371 0 .673.306.673.684v3.08a.678.678 0 0 1-.673.683zM5.156 6.158h4.236v-1.71H5.156z"/>
        <g>
            <g>
                <g filter="url(#on46a)">
                    <path d="M19.617 26H1.457a.678.678 0 0 1-.672-.684V.684c0-.378.3-.684.672-.684h12.109a.666.666 0 0 1 .47.197l.001.001v.001h.001L14.04.2l6.053 6.158.001.001h.001v.002h.001l.001.001a.688.688 0 0 1 .193.478v18.476a.678.678 0 0 1-.672.684zM2.13 24.632h16.814V7.526h-5.38a.678.678 0 0 1-.673-.684V1.37H2.13zM14.236 6.158h3.757l-3.757-3.822zm2.354 14.71H4.484a.678.678 0 0 1-.673-.684c0-.378.301-.684.673-.684H16.59c.372 0 .673.306.673.684a.678.678 0 0 1-.673.684zm0-3.078H4.484a.679.679 0 0 1-.673-.685c0-.378.301-.684.673-.684H16.59c.372 0 .673.306.673.684a.679.679 0 0 1-.673.685zm-6.053-3.08H4.484a.678.678 0 0 1-.673-.684c0-.377.301-.684.673-.684h6.053c.371 0 .673.307.673.684a.678.678 0 0 1-.673.685zm-.473-7.184h-5.58a.678.678 0 0 1-.673-.684V3.763c0-.378.301-.684.673-.684h5.58c.371 0 .673.306.673.684v3.08a.678.678 0 0 1-.673.683zM5.156 6.158h4.236v-1.71H5.156z" mask="url(&quot;#on46b&quot;)"/>
                    <path d="M19.617 26H1.457a.678.678 0 0 1-.672-.684V.684c0-.378.3-.684.672-.684h12.109a.666.666 0 0 1 .47.197l.001.001v.001h.001L14.04.2l6.053 6.158.001.001h.001v.002h.001l.001.001a.688.688 0 0 1 .193.478v18.476a.678.678 0 0 1-.672.684zM2.13 24.632h16.814V7.526h-5.38a.678.678 0 0 1-.673-.684V1.37H2.13zM14.236 6.158h3.757l-3.757-3.822zm2.354 14.71H4.484a.678.678 0 0 1-.673-.684c0-.378.301-.684.673-.684H16.59c.372 0 .673.306.673.684a.678.678 0 0 1-.673.684zm0-3.078H4.484a.679.679 0 0 1-.673-.685c0-.378.301-.684.673-.684H16.59c.372 0 .673.306.673.684a.679.679 0 0 1-.673.685zm-6.053-3.08H4.484a.678.678 0 0 1-.673-.684c0-.377.301-.684.673-.684h6.053c.371 0 .673.307.673.684a.678.678 0 0 1-.673.685zm-.473-7.184h-5.58a.678.678 0 0 1-.673-.684V3.763c0-.378.301-.684.673-.684h5.58c.371 0 .673.306.673.684v3.08a.678.678 0 0 1-.673.683zM5.156 6.158h4.236v-1.71H5.156z"/>
                </g>
                <path d="M19.617 26H1.457a.678.678 0 0 1-.672-.684V.684c0-.378.3-.684.672-.684h12.109a.666.666 0 0 1 .47.197l.001.001v.001h.001L14.04.2l6.053 6.158.001.001h.001v.002h.001l.001.001a.688.688 0 0 1 .193.478v18.476a.678.678 0 0 1-.672.684zM2.13 24.632h16.814V7.526h-5.38a.678.678 0 0 1-.673-.684V1.37H2.13zM14.236 6.158h3.757l-3.757-3.822zm2.354 14.71H4.484a.678.678 0 0 1-.673-.684c0-.378.301-.684.673-.684H16.59c.372 0 .673.306.673.684a.678.678 0 0 1-.673.684zm0-3.078H4.484a.679.679 0 0 1-.673-.685c0-.378.301-.684.673-.684H16.59c.372 0 .673.306.673.684a.679.679 0 0 1-.673.685zm-6.053-3.08H4.484a.678.678 0 0 1-.673-.684c0-.377.301-.684.673-.684h6.053c.371 0 .673.307.673.684a.678.678 0 0 1-.673.685zm-.473-7.184h-5.58a.678.678 0 0 1-.673-.684V3.763c0-.378.301-.684.673-.684h5.58c.371 0 .673.306.673.684v3.08a.678.678 0 0 1-.673.683zM5.156 6.158h4.236v-1.71H5.156z"/>
                <path d="M19.617 26H1.457a.678.678 0 0 1-.672-.684V.684c0-.378.3-.684.672-.684h12.109a.666.666 0 0 1 .47.197l.001.001v.001h.001L14.04.2l6.053 6.158.001.001h.001v.002h.001l.001.001a.688.688 0 0 1 .193.478v18.476a.678.678 0 0 1-.672.684zM2.13 24.632h16.814V7.526h-5.38a.678.678 0 0 1-.673-.684V1.37H2.13zM14.236 6.158h3.757l-3.757-3.822zm2.354 14.71H4.484a.678.678 0 0 1-.673-.684c0-.378.301-.684.673-.684H16.59c.372 0 .673.306.673.684a.678.678 0 0 1-.673.684zm0-3.078H4.484a.679.679 0 0 1-.673-.685c0-.378.301-.684.673-.684H16.59c.372 0 .673.306.673.684a.679.679 0 0 1-.673.685zm-6.053-3.08H4.484a.678.678 0 0 1-.673-.684c0-.377.301-.684.673-.684h6.053c.371 0 .673.307.673.684a.678.678 0 0 1-.673.685zm-.473-7.184h-5.58a.678.678 0 0 1-.673-.684V3.763c0-.378.301-.684.673-.684h5.58c.371 0 .673.306.673.684v3.08a.678.678 0 0 1-.673.683zM5.156 6.158h4.236v-1.71H5.156z"/>
            </g>
        </g>
    </symbol>
    <symbol viewBox="0 0 17 27" id="map">
        <path d="M8.756 25.316a.671.671 0 0 1-.594-.362L1.217 11.72a8.395 8.395 0 0 1-.7-3.368c0-4.606 3.696-8.354 8.24-8.354 4.542 0 8.238 3.748 8.238 8.354a8.394 8.394 0 0 1-.73 3.441L9.35 24.955a.672.672 0 0 1-.594.36zM2.417 11.104l6.34 12.079 6.309-12.01c.388-.89.584-1.839.584-2.821 0-3.854-3.092-6.99-6.894-6.99-3.801 0-6.894 3.136-6.894 6.99 0 .956.187 1.882.555 2.752zm6.34 1.308c-2.374 0-4.305-1.958-4.305-4.365s1.93-4.365 4.304-4.365c2.374 0 4.305 1.958 4.305 4.365s-1.931 4.365-4.305 4.365zm0-7.366c-1.632 0-2.96 1.346-2.96 3 0 1.655 1.328 3.002 2.96 3.002 1.631 0 2.959-1.347 2.959-3.001 0-1.655-1.328-3.001-2.96-3.001z"/>
        <g>
            <g>
                <g filter="url(#8zl6a)">
                    <path d="M8.756 25.316a.671.671 0 0 1-.594-.362L1.217 11.72a8.395 8.395 0 0 1-.7-3.368c0-4.606 3.696-8.354 8.24-8.354 4.542 0 8.238 3.748 8.238 8.354a8.394 8.394 0 0 1-.73 3.441L9.35 24.955a.672.672 0 0 1-.594.36zM2.417 11.104l6.34 12.079 6.309-12.01c.388-.89.584-1.839.584-2.821 0-3.854-3.092-6.99-6.894-6.99-3.801 0-6.894 3.136-6.894 6.99 0 .956.187 1.882.555 2.752zm6.34 1.308c-2.374 0-4.305-1.958-4.305-4.365s1.93-4.365 4.304-4.365c2.374 0 4.305 1.958 4.305 4.365s-1.931 4.365-4.305 4.365zm0-7.366c-1.632 0-2.96 1.346-2.96 3 0 1.655 1.328 3.002 2.96 3.002 1.631 0 2.959-1.347 2.959-3.001 0-1.655-1.328-3.001-2.96-3.001z" mask="url(&quot;#8zl6b&quot;)"/>
                    <path d="M8.756 25.316a.671.671 0 0 1-.594-.362L1.217 11.72a8.395 8.395 0 0 1-.7-3.368c0-4.606 3.696-8.354 8.24-8.354 4.542 0 8.238 3.748 8.238 8.354a8.394 8.394 0 0 1-.73 3.441L9.35 24.955a.672.672 0 0 1-.594.36zM2.417 11.104l6.34 12.079 6.309-12.01c.388-.89.584-1.839.584-2.821 0-3.854-3.092-6.99-6.894-6.99-3.801 0-6.894 3.136-6.894 6.99 0 .956.187 1.882.555 2.752zm6.34 1.308c-2.374 0-4.305-1.958-4.305-4.365s1.93-4.365 4.304-4.365c2.374 0 4.305 1.958 4.305 4.365s-1.931 4.365-4.305 4.365zm0-7.366c-1.632 0-2.96 1.346-2.96 3 0 1.655 1.328 3.002 2.96 3.002 1.631 0 2.959-1.347 2.959-3.001 0-1.655-1.328-3.001-2.96-3.001z"/>
                </g>
                <path d="M8.756 25.316a.671.671 0 0 1-.594-.362L1.217 11.72a8.395 8.395 0 0 1-.7-3.368c0-4.606 3.696-8.354 8.24-8.354 4.542 0 8.238 3.748 8.238 8.354a8.394 8.394 0 0 1-.73 3.441L9.35 24.955a.672.672 0 0 1-.594.36zM2.417 11.104l6.34 12.079 6.309-12.01c.388-.89.584-1.839.584-2.821 0-3.854-3.092-6.99-6.894-6.99-3.801 0-6.894 3.136-6.894 6.99 0 .956.187 1.882.555 2.752zm6.34 1.308c-2.374 0-4.305-1.958-4.305-4.365s1.93-4.365 4.304-4.365c2.374 0 4.305 1.958 4.305 4.365s-1.931 4.365-4.305 4.365zm0-7.366c-1.632 0-2.96 1.346-2.96 3 0 1.655 1.328 3.002 2.96 3.002 1.631 0 2.959-1.347 2.959-3.001 0-1.655-1.328-3.001-2.96-3.001z"/>
                <path d="M8.756 25.316a.671.671 0 0 1-.594-.362L1.217 11.72a8.395 8.395 0 0 1-.7-3.368c0-4.606 3.696-8.354 8.24-8.354 4.542 0 8.238 3.748 8.238 8.354a8.394 8.394 0 0 1-.73 3.441L9.35 24.955a.672.672 0 0 1-.594.36zM2.417 11.104l6.34 12.079 6.309-12.01c.388-.89.584-1.839.584-2.821 0-3.854-3.092-6.99-6.894-6.99-3.801 0-6.894 3.136-6.894 6.99 0 .956.187 1.882.555 2.752zm6.34 1.308c-2.374 0-4.305-1.958-4.305-4.365s1.93-4.365 4.304-4.365c2.374 0 4.305 1.958 4.305 4.365s-1.931 4.365-4.305 4.365zm0-7.366c-1.632 0-2.96 1.346-2.96 3 0 1.655 1.328 3.002 2.96 3.002 1.631 0 2.959-1.347 2.959-3.001 0-1.655-1.328-3.001-2.96-3.001z"/>
            </g>
        </g>
    </symbol>
    <!-- about -->
    <symbol viewBox="0 0 76 76" id="sec2_1">
        <g>
            <g>
                <path d="M38 76C17.047 76 0 58.953 0 38S17.047 0 38 0s38 17.047 38 38-17.047 38-38 38zm0-72C19.252 4 4 19.252 4 38c0 18.748 15.252 34 34 34 18.748 0 34-15.252 34-34C72 19.252 56.748 4 38 4zm0 63C22.01 67 9 53.99 9 38S22.01 9 38 9s29 13.01 29 29-13.01 29-29 29zm0-54c-13.785 0-25 11.215-25 25s11.215 25 25 25 25-11.215 25-25-11.215-25-25-25zm9 27h-9a2 2 0 0 1-2-2v-9a2 2 0 0 1 4 0v7h7a2 2 0 0 1 0 4z"/>
            </g>
        </g>
    </symbol>
    <symbol viewBox="0 0 84 51" id="sec2_2">
        <g>
            <g>
                <path d="M8.19 50.982c-.394 0-.78-.117-1.107-.337-7.159-4.805-9.09-14.593-4.307-21.818 2.316-3.499 5.844-5.883 9.933-6.712a15.6 15.6 0 0 1 4.29-.269 2.025 2.025 0 0 1-.02-.808c1.149-6.469 4.731-12.1 10.086-15.858C32.42 1.423 38.907-.009 45.334 1.147c8.701 1.567 15.642 7.65 18.596 15.59a1.99 1.99 0 0 1 .896-.172c6.074.25 11.565 3.261 15.06 8.262 2.97 4.247 4.112 9.173 3.215 13.868-.883 4.63-3.706 8.835-7.948 11.841a1.989 1.989 0 0 1-1.146.366l-65.815.08zm7.625-25.162c-.77 0-1.546.077-2.318.233a11.586 11.586 0 0 0-7.401 5.002c-3.455 5.218-2.21 12.227 2.723 15.91l64.535-.08c3.114-2.368 5.176-5.525 5.83-8.949.7-3.667-.186-7.4-2.56-10.796-2.708-3.874-6.922-6.244-11.607-6.542.29 1.493.448 3.031.456 4.6a2.001 2.001 0 0 1-1.983 2.02h-.011a2.002 2.002 0 0 1-1.995-1.997c-.057-9.91-7.145-18.372-16.852-20.12-5.378-.966-10.804.231-15.286 3.375-4.481 3.143-7.478 7.856-8.44 13.27a2.014 2.014 0 0 1-.336.808c1.351.44 2.65 1.071 3.863 1.886a2.017 2.017 0 0 1 .554 2.785 1.986 1.986 0 0 1-2.767.557 11.45 11.45 0 0 0-6.405-1.962zm38.3-2.673a2 2 0 0 1-1.99-1.907c-.245-4.868-4.407-8.63-9.209-8.381a2.012 2.012 0 0 1-2.092-1.905 2.003 2.003 0 0 1 1.891-2.107c7.07-.348 13.039 5.111 13.393 12.19a2.003 2.003 0 0 1-1.994 2.11z"/>
            </g>
        </g>
    </symbol>
    <symbol viewBox="0 0 76 76" id="sec2_3">
        <g>
            <g>
                <path d="M38 76h-.025a2.004 2.004 0 0 1-.906-.228L1.111 57.806A1.999 1.999 0 0 1 .006 56.02V20.09a1.99 1.99 0 0 1 .184-.879l.043-.086c.205-.393.524-.69.896-.87l17.96-8.974a.523.523 0 0 1 .037-.019L37.106.28a2.004 2.004 0 0 1 1.788 0L74.87 18.254a1.983 1.983 0 0 1 .94.958c.133.285.191.585.185.879v35.928c0 .756-.427 1.449-1.105 1.787L38.931 75.772a2.003 2.003 0 0 1-.906.229H38zm2-36.73v31.5l31.995-15.986v-31.5L56.911 30.82a.52.52 0 0 1-.037.019zM4.005 54.784L36 70.77v-31.5L4.005 23.284zm2.471-34.733L38 35.801l13.526-6.758-31.523-15.75zm17.998-8.992l31.523 15.75 13.527-6.758L38 4.301zM29 58.017c-.305 0-.612-.07-.894-.21L10.11 48.813a1.998 1.998 0 0 1-1.106-1.787v-8.992a1.998 1.998 0 0 1 2.894-1.788l17.998 8.992A1.999 1.999 0 0 1 31 47.027v8.992a1.999 1.999 0 0 1-2 1.998zM13.004 45.792l13.998 6.994V48.26l-13.998-6.993z"/>
            </g>
        </g>
    </symbol>
    <!-- footer -->
    <symbol viewBox="0 0 26 18" id="twit">
        <g>
            <g>
                <path d="M25.996 8.3c-.915.157-2.242-.006-2.946-.3 1.462-.122 2.451-.788 2.833-1.694-.527.326-2.163.68-3.065.343a11.009 11.009 0 0 0-.144-.6c-.687-2.538-3.044-4.584-5.512-4.337.2-.081.401-.156.605-.225.27-.098 1.865-.359 1.615-.923-.213-.498-2.161.374-2.528.489.485-.182 1.285-.497 1.37-1.056a3.855 3.855 0 0 0-2.032.967c.204-.22.358-.487.39-.776-1.979 1.271-3.135 3.83-4.07 6.316-.734-.716-1.386-1.28-1.97-1.593-1.638-.881-3.597-1.803-6.671-2.95-.095 1.022.503 2.382 2.223 3.285-.373-.05-1.054.063-1.599.193.222 1.172.947 2.137 2.912 2.603-.898.06-1.362.266-1.782.707.409.815 1.407 1.773 3.2 1.576-1.995.865-.813 2.466.811 2.227-2.77 2.876-7.137 2.663-9.645.26 6.548 8.965 20.782 5.301 22.902-3.335 1.591.013 2.524-.552 3.103-1.177z"/>
            </g>
        </g>
    </symbol>
    <symbol viewBox="0 0 6 12" id="face">
        <g>
            <g>
                <path d="M3.988 11.993H1.325V6h-1.33V3.933h1.33v-1.24c0-1.685.751-2.688 2.886-2.688h1.777v2.067h-1.11c-.832 0-.886.288-.886.827l-.004 1.034h2.013l-.236 2.066H3.988v5.994z"/>
            </g>
        </g>
    </symbol>
    <symbol viewBox="0 0 9 9" id="signal">
        <g>
            <g>
                <path d="M-.003 3.06A5.946 5.946 0 0 1 5.934 9H4.203A4.193 4.193 0 0 0 2.97 6.018 4.174 4.174 0 0 0-.003 4.784zM-.001 0c4.96 0 8.993 4.04 8.993 9.003h-1.73c0-4.012-3.259-7.277-7.263-7.277zm2.395 7.798c0 .66-.538 1.195-1.2 1.195-.662 0-1.199-.535-1.199-1.195s.537-1.195 1.2-1.195c.661 0 1.199.535 1.199 1.195z"/>
            </g>
        </g>
    </symbol>
    <symbol viewBox="0 0 13 9" id="mail">
        <g>
            <g>
                <path d="M13.007 8.952V.636L9.033 3.922zM6.51 5.342l6.463-5.345H.047zm-2.523-1.42L.008.632l-.01 8.342zm.318.263L.497 9.008h12.027l-3.81-4.823-2.202 1.822v.002l-.001-.001-.002.001v-.002z"/>
            </g>
        </g>
    </symbol>
</svg>